<svg width="360" height="160" viewBox="0 0 360 160" fill="none" xmlns="http://www.w3.org/2000/svg">
  <!-- Kreis aus Punkten -->
  <g fill="#111">
    <circle cx="185" cy="40" r="6"/>
    <circle cx="210" cy="46" r="5"/>
    <circle cx="225" cy="62" r="5"/>
    <circle cx="229" cy="84" r="4.8"/>
    <circle cx="220" cy="104" r="5.4"/>
    <circle cx="202" cy="116" r="5.2"/>
    <circle cx="180" cy="120" r="6"/>
    <circle cx="158" cy="114" r="5.2"/>
    <circle cx="142" cy="100" r="5"/>
    <circle cx="136" cy="80" r="5.2"/>
    <circle cx="140" cy="60" r="4.6"/>
    <circle cx="152" cy="46" r="5"/>
    <circle cx="168" cy="38" r="5.2"/>
    <circle cx="195" cy="22" r="4.2"/>
    <circle cx="215" cy="30" r="4.2"/>
    <circle cx="230" cy="48" r="3.8"/>
    <circle cx="236" cy="70" r="3.6"/>
    <circle cx="234" cy="96" r="3.8"/>
    <circle cx="222" cy="116" r="3.6"/>
    <circle cx="204" cy="128" r="3.6"/>
    <circle cx="178" cy="132" r="3.2"/>
    <circle cx="154" cy="124" r="3.2"/>
    <circle cx="136" cy="108" r="3.4"/>
    <circle cx="126" cy="86" r="3.4"/>
    <circle cx="128" cy="64" r="3.4"/>
    <circle cx="140" cy="44" r="3.2"/>
    <circle cx="160" cy="30" r="3.2"/>
  </g>

  <!-- Wortmarke -->
  <text x="50%" y="155" text-anchor="middle" font-family="system-ui,-apple-system,'Segoe UI',Roboto,Arial,sans-serif" font-size="14" letter-spacing="3" fill="#111">
    DISCOVER ALL EVENTS.
  </text>
  <text x="50%" y="118" text-anchor="middle" font-family="system-ui,-apple-system,'Segoe UI',Roboto,Arial,sans-serif"
        font-size="48" font-weight="500" fill="#111">
    Where<tspan font-weight="600">2</tspan>Go
  </text>
</svg>