<svg width="400" height="180" viewBox="0 0 400 180" fill="none" xmlns="http://www.w3.org/2000/svg">
  <!-- Circular dot pattern -->
  <g transform="translate(90, 90)">
    <!-- Outer circle dots -->
    <circle cx="60" cy="0" r="4" fill="#1e3a8a" opacity="0.9"/>
    <circle cx="55.98" cy="15" r="3.5" fill="#1e3a8a" opacity="0.8"/>
    <circle cx="42.43" cy="42.43" r="3" fill="#1e3a8a" opacity="0.7"/>
    <circle cx="15" cy="55.98" r="2.5" fill="#1e3a8a" opacity="0.6"/>
    <circle cx="0" cy="60" r="4" fill="#1e3a8a" opacity="0.9"/>
    <circle cx="-15" cy="55.98" r="3.5" fill="#1e3a8a" opacity="0.8"/>
    <circle cx="-42.43" cy="42.43" r="3" fill="#1e3a8a" opacity="0.7"/>
    <circle cx="-55.98" cy="15" r="2.5" fill="#1e3a8a" opacity="0.6"/>
    <circle cx="-60" cy="0" r="4" fill="#1e3a8a" opacity="0.9"/>
    <circle cx="-55.98" cy="-15" r="3.5" fill="#1e3a8a" opacity="0.8"/>
    <circle cx="-42.43" cy="-42.43" r="3" fill="#1e3a8a" opacity="0.7"/>
    <circle cx="-15" cy="-55.98" r="2.5" fill="#1e3a8a" opacity="0.6"/>
    <circle cx="0" cy="-60" r="4" fill="#1e3a8a" opacity="0.9"/>
    <circle cx="15" cy="-55.98" r="3.5" fill="#1e3a8a" opacity="0.8"/>
    <circle cx="42.43" cy="-42.43" r="3" fill="#1e3a8a" opacity="0.7"/>
    <circle cx="55.98" cy="-15" r="2.5" fill="#1e3a8a" opacity="0.6"/>
    
    <!-- Inner circle dots -->
    <circle cx="40" cy="0" r="3" fill="#2563eb" opacity="0.8"/>
    <circle cx="28.28" cy="28.28" r="2.5" fill="#2563eb" opacity="0.7"/>
    <circle cx="0" cy="40" r="3" fill="#2563eb" opacity="0.8"/>
    <circle cx="-28.28" cy="28.28" r="2.5" fill="#2563eb" opacity="0.7"/>
    <circle cx="-40" cy="0" r="3" fill="#2563eb" opacity="0.8"/>
    <circle cx="-28.28" cy="-28.28" r="2.5" fill="#2563eb" opacity="0.7"/>
    <circle cx="0" cy="-40" r="3" fill="#2563eb" opacity="0.8"/>
    <circle cx="28.28" cy="-28.28" r="2.5" fill="#2563eb" opacity="0.7"/>
    
    <!-- Center dots -->
    <circle cx="20" cy="0" r="2" fill="#3b82f6" opacity="0.9"/>
    <circle cx="14.14" cy="14.14" r="1.5" fill="#3b82f6" opacity="0.8"/>
    <circle cx="0" cy="20" r="2" fill="#3b82f6" opacity="0.9"/>
    <circle cx="-14.14" cy="14.14" r="1.5" fill="#3b82f6" opacity="0.8"/>
    <circle cx="-20" cy="0" r="2" fill="#3b82f6" opacity="0.9"/>
    <circle cx="-14.14" cy="-14.14" r="1.5" fill="#3b82f6" opacity="0.8"/>
    <circle cx="0" cy="-20" r="2" fill="#3b82f6" opacity="0.9"/>
    <circle cx="14.14" cy="-14.14" r="1.5" fill="#3b82f6" opacity="0.8"/>
  </g>
  
  <!-- Where2Go text -->
  <text x="200" y="95" font-family="system-ui, -apple-system, 'Segoe UI', sans-serif" font-size="48" font-weight="400" fill="#1f2937" text-anchor="start" font-style="italic">
    Where2Go
  </text>
  
  <!-- Tagline -->
  <text x="200" y="125" font-family="system-ui, -apple-system, 'Segoe UI', sans-serif" font-size="14" font-weight="300" fill="#6b7280" text-anchor="start" letter-spacing="2px">
    DISCOVER ALL EVENTS.
  </text>
</svg>